<svg width="24" height="25" viewBox="0 0 24 25" fill="none" xmlns="http://www.w3.org/2000/svg">
<path d="M0 5.89746C0 3.13603 2.23858 0.897461 5 0.897461H19C21.7614 0.897461 24 3.13604 24 5.89746V24.5001H5C2.23858 24.5001 0 22.2615 0 19.5001V5.89746Z" fill="#B6E3F4"/>
<mask id="mask0_670_70" style="mask-type:luminance" maskUnits="userSpaceOnUse" x="1" y="1" width="22" height="23">
<path d="M23 1.97559L1 1.97559L1 23.6113L23 23.6113L23 1.97559Z" fill="white"/>
</mask>
<g mask="url(#mask0_670_70)">
<path d="M13.0007 3.43262C13.0447 3.47586 13.0007 3.54073 12.9788 3.58397C12.8468 3.92993 12.561 4.14615 12.2312 4.34075C11.8575 4.60022 11.4177 4.75157 10.978 4.88131L11.1319 4.85969C11.6376 4.7732 12.1653 4.70833 12.6709 4.55697C13.1546 4.40562 13.6164 4.1894 14.0561 3.97317C14.188 3.90831 14.2979 3.82182 14.4298 3.77857C14.5178 3.73533 14.6057 3.8002 14.6277 3.88668C14.6717 4.01642 14.6277 4.16777 14.5837 4.29751C14.4958 4.5786 14.3419 4.81644 14.144 5.01104L14.8256 5.22726C15.4412 5.48673 15.9909 5.83269 16.5845 6.09215C16.8703 6.22189 17.1781 6.37324 17.4859 6.43811C17.7278 6.50298 17.9696 6.5246 18.2335 6.5246L18.5852 6.50298C18.6292 6.5246 18.6732 6.5246 18.6732 6.56784C18.6952 6.67596 18.6512 6.80569 18.6072 6.9138C18.5193 7.13002 18.3874 7.32462 18.2335 7.51922C18.0356 7.80031 17.7718 8.03816 17.464 8.21114C17.5959 8.40574 17.7058 8.57871 17.8817 8.73007C18.1016 8.96791 18.3874 9.14089 18.6952 9.249L18.8051 9.29225C18.8271 9.33549 18.8051 9.35711 18.7831 9.37874C18.7392 9.46523 18.6512 9.50847 18.5633 9.55171C18.3874 9.59496 18.2115 9.6382 18.0356 9.6382C18.1235 9.98416 18.1235 10.3517 17.9696 10.6761L17.7937 10.9572C17.8597 11.2599 17.9696 11.541 18.1675 11.8004C18.2555 11.9302 18.3874 12.0383 18.4973 12.1464L18.5852 12.2329C18.5413 12.2977 18.5413 12.3626 18.4753 12.4059C18.3654 12.5572 18.1895 12.6437 18.0136 12.7086C18.3434 13.0329 18.5413 13.4653 18.6292 13.8978C18.6732 14.1356 18.6732 14.4167 18.5633 14.6329C18.5413 14.6978 18.4753 14.7843 18.4094 14.7843C18.3874 14.7843 18.3654 14.7627 18.3874 14.7411L18.4094 14.5465C18.4313 14.3735 18.3874 14.2005 18.3434 14.0275C18.2994 13.7897 18.2115 13.5735 18.0796 13.3572L17.9476 13.1626C18.0576 13.5086 18.0796 13.8545 18.0136 14.2005C17.9799 14.5026 17.8696 14.7915 17.6929 15.0408C17.5162 15.2902 17.2788 15.4919 17.0022 15.6276C17.1122 15.8005 17.2661 15.9735 17.4859 16.06C17.6179 16.1249 17.7718 16.1681 17.9257 16.1897L18.0576 16.2114C18.1016 16.2762 17.9916 16.3195 17.9696 16.3627C17.8597 16.5141 17.7058 16.6222 17.5519 16.7303C17.2441 16.9033 16.9143 16.9898 16.5625 17.033L16.8703 17.0763C17.1122 17.0979 17.332 17.0546 17.5519 16.9681C17.5959 16.9681 17.6618 16.9249 17.6838 16.9681C17.7058 17.0114 17.6398 17.0979 17.5959 17.1195C17.398 17.3141 17.1122 17.4006 16.8263 17.4222C16.5405 17.4438 16.2327 17.3573 15.9909 17.206C15.9249 17.3357 15.815 17.4438 15.727 17.5519C15.5731 17.7033 15.4192 17.833 15.2213 17.9411C14.9135 18.0925 14.5618 18.179 14.232 18.1357C14.0341 18.1141 13.8142 18.0493 13.6383 17.9195L13.5284 17.7682C13.2206 17.6168 12.8908 17.4438 12.561 17.3357C11.8949 17.1023 11.1699 17.0872 10.4943 17.2925C9.99372 17.4254 9.50768 17.6064 9.04321 17.833C8.75739 18.0276 8.42759 18.1357 8.07581 18.1574C7.87794 18.179 7.65807 18.179 7.4602 18.0709C7.4602 18.0493 7.39424 18.006 7.43821 18.006C7.89109 18.0117 8.33529 17.8836 8.71341 17.6384C8.42759 17.7249 8.14177 17.7682 7.85595 17.7682C7.57013 17.7682 7.26232 17.7249 7.02047 17.5519C6.95451 17.4871 6.84458 17.4222 6.82259 17.3357L7.15239 17.206L7.6141 17.0114L7.28431 16.9465C6.87009 16.8026 6.50985 16.5388 6.25095 16.1897L6.16301 16.0168C6.14102 16.1033 6.11903 16.1681 6.05307 16.233H5.98712C5.81123 16.1897 5.70129 16.06 5.61335 15.9087C5.48143 15.6708 5.3715 15.4113 5.30554 15.1519C5.23958 14.8708 5.2176 14.5681 5.30554 14.2654C5.15164 14.3086 4.97575 14.3086 4.82184 14.287C4.62397 14.2654 4.4041 14.2005 4.27219 14.0275C4.22821 13.941 4.16226 13.8545 4.14027 13.7464L4.16226 13.7248L4.18424 13.7464L4.38212 13.8762C4.51404 13.941 4.64595 13.941 4.77787 13.9194C4.55989 13.7832 4.38085 13.5946 4.25773 13.3714C4.13461 13.1481 4.07148 12.8976 4.07431 12.6437C4.07431 12.5356 4.0963 12.4275 4.14027 12.341C4.18424 12.2761 4.29417 12.2545 4.33815 12.3194L4.49205 12.4923C4.60198 12.5788 4.7339 12.6653 4.8878 12.6437C4.99773 12.6437 5.12965 12.6221 5.2176 12.5572C5.32753 12.4923 5.41547 12.3842 5.45945 12.2761C5.5254 12.0815 5.56938 11.9085 5.56938 11.7139L5.50342 10.8058L5.45945 10.2652C5.45945 9.94092 5.39349 9.6382 5.41547 9.31387C5.41547 9.0544 5.45945 8.79494 5.5254 8.53547C5.56938 8.34087 5.65732 8.16789 5.76725 7.99491L6.14102 7.4976C5.89917 7.47598 5.63534 7.4976 5.39349 7.56247L4.97575 7.64896C5.04171 7.38949 5.23958 7.23813 5.43746 7.1084L5.89917 6.87056C6.16301 6.74082 6.47081 6.7192 6.75664 6.78407C6.60273 6.48135 6.62472 6.15702 6.69068 5.83269C6.77862 5.48673 6.95451 5.1624 7.24033 4.92455C7.30629 4.85969 7.43821 4.7732 7.54814 4.79482L7.63609 4.7732C7.65807 4.81644 7.59211 4.88131 7.57013 4.94617C7.50417 5.11915 7.43821 5.31375 7.41622 5.50835C7.37225 5.78944 7.37225 6.09215 7.48218 6.35162L7.54814 6.48135L7.63609 6.28675L7.78999 6.07053C7.92191 5.78944 8.16376 5.59484 8.42759 5.42186C8.75739 5.20564 9.10917 5.03266 9.48293 4.90293C9.79074 4.79482 10.1205 4.75157 10.4283 4.66509C10.7142 4.60022 11 4.49211 11.2638 4.384C11.7786 4.20338 12.2665 3.95615 12.7149 3.64884C12.8248 3.6056 12.9128 3.51911 13.0007 3.43262Z" fill="black"/>
<path d="M12.1665 5.70305C13.3708 5.75666 14.5165 6.22982 15.3986 7.03793C16.2807 7.84603 16.8418 8.93638 16.9815 10.114C17.0035 10.3302 17.0255 10.5681 16.9815 10.7627C16.9595 10.8491 16.9595 10.914 16.8936 10.9356C16.8276 10.7194 16.8276 10.5248 16.8056 10.3086C16.7642 9.67552 16.5944 9.05699 16.3062 8.48941C16.0181 7.92183 15.6174 7.41667 15.1278 7.00365C14.6381 6.59063 14.0694 6.2781 13.4552 6.08445C12.8409 5.89079 12.1934 5.81993 11.5509 5.87603C10.6275 5.96252 9.72603 6.28685 8.97849 6.82741L8.60473 7.1085C8.07978 7.54638 7.65543 8.08896 7.35978 8.70029C7.06413 9.31161 6.90393 9.97774 6.8898 10.6545C6.8898 11.1519 7.0437 11.5843 7.21959 12.0384H7.59336C7.65932 12.06 7.6813 12.1249 7.63733 12.1681L7.50541 12.2114C7.17562 12.233 6.82384 12.3627 6.58199 12.5789C6.4061 12.7735 6.27418 12.9898 6.23021 13.2492C6.16425 13.5736 6.23021 13.9411 6.4061 14.2222C6.60398 14.5466 6.93377 14.806 7.28555 14.9358C7.59336 15.0439 7.92315 15.0871 8.23096 15.0439C8.31891 15.0222 8.40685 15.0006 8.47281 15.0439V15.1087C8.36288 15.2168 8.23096 15.2385 8.07706 15.2601C7.72528 15.325 7.35151 15.2385 7.0437 15.0871C6.78671 14.9679 6.56035 14.7932 6.38144 14.5761C6.20254 14.359 6.0757 14.105 6.01035 13.833C5.9224 13.4438 5.98836 13.033 6.20822 12.687C6.38411 12.4276 6.64795 12.233 6.95576 12.1249C6.80185 11.8222 6.73589 11.5194 6.69192 11.1951C6.64795 10.8059 6.64795 10.4383 6.69192 10.0491C6.71391 9.76804 6.77987 9.50857 6.86781 9.22748C7.25094 8.1214 8.02275 7.18603 9.04445 6.58956C9.94589 5.98414 11.0672 5.65981 12.1665 5.70305Z" fill="black"/>
<path d="M13.0449 5.984C14.0618 6.2101 14.9772 6.75324 15.6546 7.5325C16.3321 8.31177 16.7355 9.28544 16.8046 10.3084C16.8266 10.5247 16.8266 10.7193 16.8925 10.9355L16.8486 11.3247V11.8004C16.7826 11.8869 16.7606 11.995 16.7606 12.1031C16.7166 12.2761 16.7166 12.4274 16.7166 12.6004V14.0059C16.7166 14.4599 16.6507 14.914 16.4748 15.3248C16.3868 15.6059 16.2549 15.8437 16.079 16.0816C15.8592 16.3411 15.6173 16.5573 15.3315 16.7519C15.0897 16.9465 14.8038 17.1195 14.518 17.2708L14.0343 17.5735L13.7705 17.7465L13.9684 17.7033C13.9024 17.9411 13.9024 18.2222 13.8804 18.4817C13.8804 18.6546 13.9024 18.8276 14.0343 18.9573C14.5564 19.3947 15.1618 19.7255 15.8152 19.9303C15.9471 20.0817 16.0571 20.2763 16.101 20.4709C16.123 20.6655 16.101 20.8601 16.0131 21.0547C15.8812 21.2709 15.7053 21.4439 15.5074 21.5736C15.2216 21.7899 14.8918 21.9412 14.562 22.0493C13.021 22.5418 11.3747 22.6239 9.79097 22.2872C9.43919 22.2223 9.06542 22.0926 8.73563 21.9196C8.51576 21.8115 8.27391 21.6601 8.12001 21.4655C7.98809 21.3358 7.90015 21.1628 7.87816 20.9898C7.83419 20.7736 7.87816 20.5358 7.98809 20.3412C8.4498 20.0601 8.84556 19.6493 9.06542 19.1736C9.17535 18.9357 9.21932 18.6979 9.24131 18.4384C9.2633 18.0925 9.24131 17.7465 9.21932 17.4222C9.17535 16.9897 9.15336 16.5357 9.04343 16.1032C9.28528 16.3627 9.54912 16.6221 9.85693 16.7951C10.2307 17.033 10.6484 17.2276 11.0662 17.3573C11.5059 17.5087 11.9676 17.6384 12.4513 17.7465L13.001 17.8114C13.0669 17.8114 13.1329 17.8114 13.1769 17.7681C13.2208 17.7465 13.1988 17.7249 13.2208 17.7033L12.8471 17.66C12.2095 17.5087 11.5719 17.3141 10.9343 17.0762C10.5385 16.9249 10.1427 16.7519 9.76898 16.4924C9.37323 16.2113 9.04343 15.8437 8.73563 15.4762L8.49378 15.1302L8.47179 15.1086V15.0437C8.40583 15.0005 8.31789 15.0221 8.22994 15.0437C7.92213 15.087 7.59234 15.0437 7.28453 14.9356C6.93275 14.8059 6.60296 14.5464 6.40508 14.2221C6.22919 13.941 6.16323 13.5734 6.22919 13.2491C6.27316 12.9896 6.40508 12.7734 6.58097 12.5788C6.82282 12.3626 7.1746 12.2328 7.50439 12.2112L7.63631 12.168C7.68028 12.1247 7.6583 12.0599 7.59234 12.0382H7.21857C7.04268 11.5842 6.88878 11.1517 6.88878 10.6544C6.86679 10.3517 6.93275 10.0706 6.99871 9.76789C7.21915 8.73092 7.78373 7.79539 8.60371 7.10836L8.97747 6.82727C9.55598 6.41129 10.2178 6.12099 10.919 5.97561C11.6203 5.83023 12.3449 5.83309 13.0449 5.984Z" fill="white"/>
<path d="M16.8493 11.8003C16.9153 11.8652 16.8933 11.9516 16.9153 12.0598V12.6868C16.9153 13.249 16.9593 13.8544 16.9153 14.4166C16.8493 15.0869 16.6075 15.7788 16.1238 16.2761C15.5741 16.8815 14.8706 17.3788 14.0791 17.6599L14.123 17.8113V18.5681C14.145 18.6978 14.211 18.7843 14.2989 18.8708L14.8706 19.2816L15.5741 19.714L16.1018 19.9735C16.1458 19.9735 16.1678 19.9951 16.2117 20.0384L15.794 19.9303C15.3762 19.8005 14.9805 19.6275 14.6067 19.3897C14.4088 19.2816 14.189 19.1302 14.0351 18.9573C13.9032 18.8275 13.8812 18.6545 13.8812 18.4816C13.9032 18.2221 13.9032 17.941 13.9691 17.7032L13.7712 17.7464L14.0351 17.5734L14.5188 17.2707C14.8046 17.1194 15.0904 16.9464 15.3323 16.7518C15.6181 16.5572 15.8599 16.341 16.0798 16.0815C16.4902 15.464 16.7116 14.7435 16.7174 14.0058V12.6003C16.7174 12.4273 16.7174 12.276 16.7614 12.103C16.7614 11.9949 16.7834 11.8868 16.8493 11.8003ZM7.39522 13.1193C7.50516 13.2274 7.48317 13.422 7.39522 13.5301L7.32927 13.6814C7.35125 13.7463 7.4392 13.7895 7.48317 13.8112C7.61509 13.876 7.747 13.9625 7.90091 14.0058C7.90091 14.0923 7.83495 14.1139 7.747 14.1139C7.61509 14.0923 7.46118 14.049 7.35125 13.9841C7.19735 13.9193 7.06543 13.8112 7.06543 13.6382C7.06543 13.5085 7.17536 13.4436 7.19735 13.3355C7.24132 13.249 7.19735 13.1841 7.17536 13.0976C7.26331 13.076 7.32927 13.0544 7.39522 13.1193ZM8.49454 15.1301L8.73639 15.4761C9.0442 15.8437 9.37399 16.2112 9.76974 16.4923C10.1435 16.7518 10.5393 16.9248 10.935 17.0761C11.68 17.3416 12.4444 17.5512 13.2216 17.7032C13.1996 17.7248 13.2216 17.7464 13.1776 17.768C13.1336 17.8113 13.0677 17.8113 13.0017 17.8113L12.4521 17.7464C11.5484 17.5432 10.676 17.2233 9.85769 16.795C9.54988 16.6221 9.28604 16.3626 9.0442 16.1031C9.15413 16.5356 9.17611 16.9896 9.22009 17.4221C9.24207 17.7464 9.26406 18.0924 9.24207 18.4383C9.22009 18.6978 9.17611 18.9356 9.06618 19.1735C8.84632 19.6492 8.45057 20.06 7.98885 20.3411L7.68105 20.5141C7.72502 20.4276 7.81296 20.3843 7.87892 20.3195C8.16474 20.0816 8.40659 19.7789 8.62646 19.4762C8.75837 19.26 8.89029 19.0221 8.93426 18.7627C9.02221 18.3518 9.00022 17.9194 9.00022 17.5086L8.93426 16.2329L8.97824 16.0166C8.75837 15.7788 8.5605 15.4545 8.49454 15.1301Z" fill="black"/>
<path d="M16.2548 10.9354C16.3867 10.9787 16.5186 11.0868 16.5846 11.2165C16.6286 11.2814 16.6286 11.3462 16.5846 11.4111C16.5406 11.4976 16.4087 11.5408 16.3207 11.476C16.2328 11.4327 16.1888 11.3462 16.1229 11.2814C15.969 11.2165 15.837 11.2381 15.7051 11.2814C15.7711 11.3462 15.837 11.4111 15.859 11.4976C15.947 11.7571 15.925 12.0382 15.8151 12.276L16.0349 12.1679C16.0349 12.2544 16.0349 12.3192 15.991 12.4057C15.881 12.5355 15.7051 12.622 15.5512 12.6436C15.3533 12.6652 15.1775 12.6868 15.0016 12.6003C14.9136 12.5355 14.8916 12.449 14.8916 12.3625L14.8477 12.1463C14.8477 11.9949 14.9136 11.8652 14.9796 11.7354C15.1335 11.4327 15.3753 11.1733 15.6612 11.0219C15.837 10.9354 16.0569 10.8922 16.2548 10.9354ZM11.3079 11.1733C11.9015 11.1949 12.4731 11.5408 12.737 12.0598C12.781 12.1246 12.8029 12.1895 12.759 12.276C12.693 12.2544 12.671 12.2111 12.6271 12.1463C12.4951 11.9517 12.3412 11.7787 12.1434 11.649C11.9235 11.5192 11.6597 11.4544 11.3958 11.4544C11.5277 11.6706 11.5937 11.9084 11.5717 12.1463C11.5497 12.3409 11.4838 12.5571 11.3079 12.7084C11.3958 12.7301 11.4618 12.7517 11.5058 12.7949C11.3738 12.8598 11.2199 12.8598 11.066 12.8166C10.8681 12.7733 10.6923 12.6868 10.5164 12.5787C10.3405 12.449 10.1646 12.2976 10.0766 12.0814L9.9887 11.9084C9.94472 11.8219 9.96671 11.7354 10.0327 11.6706L10.2525 11.476C10.5603 11.2598 10.9341 11.1516 11.3079 11.1733Z" fill="black"/>
<path d="M12.1437 8.66504C12.2536 8.66504 12.3416 8.72991 12.3855 8.81639C12.5614 8.98937 12.7153 9.2056 12.8253 9.42182C12.8692 9.52993 12.9132 9.63804 12.8912 9.74615C12.8692 9.7894 12.8473 9.83264 12.8033 9.81102L12.6934 9.68128C12.6054 9.50831 12.4735 9.35695 12.3416 9.2056C12.3416 9.29208 12.3636 9.42182 12.3196 9.48668C12.2976 9.57317 12.2316 9.61642 12.1437 9.61642C12.0338 9.61642 11.9238 9.52993 11.8359 9.46506L11.5501 9.35695C11.5061 9.37857 11.4621 9.42182 11.4181 9.4002L11.1763 9.35695L10.7366 9.31371L10.3408 9.35695C10.4068 9.27046 10.5167 9.22722 10.6266 9.18397C10.8465 9.07586 11.0884 9.07586 11.3302 9.09748C11.3962 9.11911 11.4621 9.05424 11.5501 9.07586C11.7699 9.07586 11.9238 9.16235 12.0997 9.29208L12.0118 8.88126C11.9898 8.79477 12.0338 8.68666 12.1437 8.66504ZM15.2877 8.98937C15.3537 9.011 15.3977 9.03262 15.3977 9.09748C15.3977 9.18397 15.3317 9.27046 15.2877 9.37857C15.3757 9.33533 15.4416 9.27046 15.5296 9.27046C15.5955 9.29208 15.6175 9.33533 15.6615 9.4002C15.7714 9.35695 15.9253 9.31371 16.0573 9.35695C16.1232 9.37857 16.1452 9.42182 16.1672 9.46506C16.1012 9.52993 16.0353 9.57317 15.9473 9.5948C15.8374 9.63804 15.7055 9.68128 15.5955 9.68128C15.5296 9.68128 15.4856 9.63804 15.4416 9.61642L15.2218 9.74615C15.1558 9.74615 15.0899 9.72453 15.0679 9.65966L15.0459 9.48668L14.87 9.81102L14.782 9.94075C14.7381 9.94075 14.7161 9.94075 14.6941 9.89751C14.6501 9.83264 14.7161 9.72453 14.7381 9.65966C14.804 9.48668 14.914 9.31371 15.0459 9.16235C15.1118 9.09748 15.1778 9.011 15.2877 8.98937Z" fill="black"/>
<path d="M14.3416 13.0762C14.458 13.1392 14.557 13.2293 14.6298 13.3386C14.7026 13.4479 14.7471 13.5731 14.7594 13.7032C14.7594 13.8978 14.6494 14.0924 14.4735 14.1789L14.0998 14.3303C14.0118 14.3519 13.9679 14.3735 13.9019 14.3303C13.8579 14.2654 13.8799 14.2438 13.9239 14.2005C14.0558 14.0924 14.2537 14.0492 14.3856 13.9411C14.4516 13.8978 14.4955 13.833 14.4955 13.7465C14.4955 13.5302 14.3856 13.3789 14.3416 13.1843V13.0762Z" fill="black"/>
<path d="M11.506 15.1084C11.7259 15.0868 11.9457 15.1301 12.1656 15.1517C12.5174 15.1733 12.8472 15.2598 13.1989 15.2814H13.7486L14.2543 15.2382C14.4961 15.1949 14.738 15.1517 14.9798 15.1733C15.1117 15.1733 15.2437 15.2165 15.3316 15.303C15.4196 15.3679 15.4855 15.4976 15.4635 15.6057C15.4415 15.7571 15.3316 15.8868 15.2217 15.9949L14.694 16.276C14.4741 16.3409 14.2763 16.4058 14.0564 16.3625C13.9685 16.3409 13.9245 16.2977 13.8805 16.2328C14.0564 16.1463 14.2323 16.1679 14.4082 16.1247C14.672 16.0598 14.9359 15.9517 15.1337 15.7787C15.1997 15.7355 15.2656 15.649 15.2876 15.5625C15.3096 15.476 15.2437 15.4328 15.1777 15.3895C15.0458 15.3463 14.8919 15.3463 14.76 15.3679C14.4082 15.4111 14.0564 15.4976 13.7046 15.5193L13.089 15.4976C12.7812 15.476 12.4734 15.3895 12.1656 15.3463L11.572 15.303C11.528 15.303 11.484 15.2814 11.44 15.3247C11.4181 15.3895 11.44 15.4976 11.484 15.5625C11.5939 15.6922 11.7478 15.7571 11.9017 15.8436L12.3195 16.0166C12.3854 16.0382 12.4734 16.0598 12.4954 16.1247C12.5394 16.276 12.5174 16.4274 12.5833 16.5787C12.6053 16.622 12.6493 16.6652 12.7152 16.6869C12.8472 16.5787 12.8032 16.449 12.8911 16.3193C12.9351 16.2328 12.9791 16.1463 13.089 16.1463C13.2869 16.1247 13.4848 16.1679 13.6826 16.1895C13.7266 16.2112 13.7706 16.2112 13.7926 16.2544C13.7926 16.3193 13.7266 16.3193 13.6826 16.3193C13.5067 16.3409 13.2869 16.276 13.111 16.276C13.045 16.2544 13.045 16.3193 13.0011 16.3409C12.9351 16.4706 12.9571 16.6004 12.8691 16.6869C12.8472 16.7517 12.7592 16.795 12.6933 16.795C12.6053 16.7733 12.5174 16.7085 12.4734 16.6436C12.3854 16.5139 12.3854 16.3409 12.3635 16.1895C12.2096 16.1679 12.0557 16.1463 11.9237 16.0814L11.55 15.9085C11.4181 15.822 11.3301 15.6922 11.2861 15.5625V15.2598C11.3301 15.1733 11.4181 15.1301 11.506 15.1084Z" fill="black"/>
<path fill-rule="evenodd" clip-rule="evenodd" d="M11.8796 9.98394C12.1654 10.0272 12.4513 10.1353 12.6931 10.3083C12.7591 10.265 12.847 10.265 12.913 10.3083C13.2242 10.5236 13.469 10.8192 13.6203 11.1626C13.7716 11.5059 13.8235 11.8837 13.7704 12.2543C13.9683 12.1245 14.2102 12.0813 14.43 12.1462C14.408 11.411 14.7818 10.6759 15.3974 10.265C15.6393 10.1137 15.9471 10.0056 16.2549 10.0056C16.4528 10.0056 16.6726 10.0488 16.8485 10.1569L16.9365 10.1785L17.0464 10.2002C17.2663 10.3515 17.4421 10.5461 17.5521 10.7623C17.728 11.1083 17.7719 11.4759 17.728 11.8651C17.662 12.4921 17.2882 13.0975 16.7386 13.4219C16.4308 13.5949 16.057 13.703 15.7052 13.6597C15.4194 13.6165 15.1556 13.4867 14.9357 13.2921C14.7378 13.1192 14.6059 12.8813 14.518 12.6219C14.496 12.5354 14.3861 12.4705 14.3201 12.4273C14.1222 12.3624 13.9243 12.4273 13.7484 12.5354L13.6385 12.6867C13.4846 13.0975 13.1768 13.4651 12.7811 13.703C12.404 13.9261 11.9671 14.0317 11.5278 14.0057C10.8463 13.9841 10.2087 13.6165 9.85688 13.0327C9.71605 12.81 9.62138 12.5621 9.57831 12.3034C9.53525 12.0446 9.54464 11.78 9.60594 11.5248C9.66724 11.2695 9.77924 11.0288 9.9355 10.8163C10.0918 10.6038 10.2892 10.4238 10.5165 10.2867C10.9122 10.0488 11.4179 9.9407 11.8796 9.98394ZM12.6491 10.3948L12.6711 10.4813C12.6711 10.5245 12.7151 10.5461 12.7591 10.5894C13.0229 10.7623 13.2428 11.0002 13.3527 11.3029C13.456 11.5383 13.5056 11.7931 13.4978 12.0494C13.49 12.3057 13.4251 12.5571 13.3077 12.7861C13.1903 13.015 13.0232 13.2157 12.8182 13.3742C12.6132 13.5326 12.3754 13.6448 12.1215 13.703C11.5498 13.8327 10.9122 13.6813 10.4725 13.2921C10.198 13.0561 10.0027 12.7438 9.91243 12.3964C9.82215 12.0489 9.84111 11.6828 9.96681 11.3461C10.1647 10.8056 10.6704 10.3731 11.264 10.2434C11.7257 10.1353 12.2094 10.2002 12.6491 10.3731V10.3948ZM16.8265 10.3731C16.8045 10.3515 16.8045 10.3299 16.7606 10.3299C16.5847 10.2434 16.3868 10.2218 16.1889 10.2434C15.8591 10.2867 15.5513 10.438 15.3095 10.6759C15.0851 10.8877 14.916 11.1497 14.8165 11.4395C14.717 11.7293 14.69 12.0385 14.7378 12.3408C14.7818 12.6219 14.9357 12.9029 15.1556 13.1192C15.3534 13.2705 15.5733 13.357 15.8152 13.3786C16.123 13.4003 16.4088 13.2921 16.6726 13.1408C17.2223 12.7516 17.5521 12.0164 17.4421 11.3678C17.3962 11.0192 17.215 10.7015 16.9365 10.4813L16.8485 10.4164L16.8265 10.3731Z" fill="black"/>
<path d="M14.5613 3.77845C14.6493 3.84332 14.6493 3.99468 14.6273 4.10279C14.5613 4.44874 14.3854 4.77308 14.1436 5.01092C14.6712 5.14066 15.1549 5.35688 15.6386 5.61635L16.4521 6.02717C16.7599 6.17852 17.0897 6.3515 17.4415 6.43799C17.6614 6.50286 17.9032 6.52448 18.1231 6.52448L18.5188 6.50286L18.6727 6.52448V6.76233C18.6288 6.91368 18.5408 7.06504 18.4529 7.21639C18.211 7.60559 17.9032 7.95155 17.5075 8.18939L17.2436 8.31913C17.5295 8.53535 17.8593 8.77319 18.0351 9.09753C18.0791 9.1624 18.1451 9.27051 18.1011 9.357C18.0132 9.44348 17.8593 9.46511 17.7493 9.48673C17.5295 9.50835 17.2876 9.52997 17.0677 9.50835C16.672 9.46511 16.2982 9.40024 15.9245 9.31375C15.3528 9.18402 14.8032 9.01104 14.3195 8.70833L14.5393 9.07591C14.5613 9.11915 14.6053 9.20564 14.5393 9.24888C14.4514 9.31375 14.3414 9.357 14.2315 9.357C13.5945 9.47064 12.9386 9.42528 12.3241 9.22507C11.7095 9.02486 11.1558 8.6762 10.7137 8.21102C10.6697 8.44886 10.6038 8.70833 10.5158 8.94617C10.4719 9.07591 10.4059 9.22726 10.296 9.33537L10.1641 9.44348L9.85625 9.22726C9.70234 9.07591 9.59241 8.90293 9.50447 8.70833C9.35056 9.03266 9.1307 9.29213 8.88885 9.57322L8.38317 10.0922L8.07536 10.3732L8.03139 10.4165L7.89947 11.3246C7.87748 11.7571 7.87748 12.1895 7.92146 12.622C7.92146 12.6868 7.94344 12.7949 7.87748 12.8382C7.83351 12.8814 7.76755 12.8598 7.72358 12.8382L7.34981 12.7084C7.06399 12.5571 6.80016 12.3409 6.58029 12.103C6.24063 11.6152 5.98784 11.0742 5.83276 10.503C5.68181 9.87205 5.70848 9.21261 5.90991 8.59548C6.11134 7.97834 6.47991 7.42683 6.97605 7.00017C6.82214 6.89206 6.7342 6.76233 6.69022 6.58935C6.62529 6.2888 6.6419 5.97675 6.73838 5.68451C6.83486 5.39228 7.00781 5.13015 7.23988 4.92443C7.32783 4.85957 7.43776 4.77308 7.54769 4.7947L7.65762 4.77308L7.54769 5.05417C7.41577 5.3785 7.34981 5.72446 7.41577 6.09204C7.43776 6.22177 7.48173 6.37312 7.54769 6.48124L7.65762 6.24339C7.78954 6.09204 7.96543 5.94068 8.14132 5.83257C8.60303 5.52986 9.10871 5.33526 9.6144 5.16228C10.0981 5.01092 10.6038 4.92443 11.1095 4.85957C11.6371 4.77308 12.1868 4.70821 12.6925 4.55686C13.1322 4.4055 13.5719 4.2109 14.0117 3.99468C14.1436 3.92981 14.2535 3.84332 14.3854 3.80008C14.4294 3.75683 14.4954 3.73521 14.5613 3.77845Z" fill="black"/>
</g>
</svg>
